<mxfile host="Electron" modified="2024-05-17T20:15:25.617Z" agent="Mozilla/5.0 (Windows NT 10.0; Win64; x64) AppleWebKit/537.36 (KHTML, like Gecko) draw.io/22.0.3 Chrome/114.0.5735.289 Electron/25.8.4 Safari/537.36" etag="LAdsF9KSLRvO5kG5Fw6D" version="22.0.3" type="device">
  <diagram name="第1頁" id="eZuz75enkBNXYv5yZJPR">
    <mxGraphModel dx="908" dy="533" grid="1" gridSize="10" guides="1" tooltips="1" connect="1" arrows="1" fold="1" page="1" pageScale="1" pageWidth="827" pageHeight="1169" math="0" shadow="0">
      <root>
        <mxCell id="0" />
        <mxCell id="1" parent="0" />
        <mxCell id="M8v9AEWylemteUUnZ0sZ-1" style="edgeStyle=none;curved=1;rounded=0;orthogonalLoop=1;jettySize=auto;html=1;entryX=0.5;entryY=1;entryDx=0;entryDy=0;fontSize=12;startSize=8;endSize=8;" edge="1" parent="1" source="M8v9AEWylemteUUnZ0sZ-2" target="M8v9AEWylemteUUnZ0sZ-3">
          <mxGeometry relative="1" as="geometry" />
        </mxCell>
        <mxCell id="M8v9AEWylemteUUnZ0sZ-2" value="" style="ellipse;html=1;shape=endState;fillColor=#000000;strokeColor=#000000;" vertex="1" parent="1">
          <mxGeometry x="220" y="180" width="30" height="30" as="geometry" />
        </mxCell>
        <mxCell id="M8v9AEWylemteUUnZ0sZ-3" value="" style="ellipse;whiteSpace=wrap;html=1;aspect=fixed;fillColor=#000000;" vertex="1" parent="1">
          <mxGeometry x="220" y="120" width="30" height="30" as="geometry" />
        </mxCell>
        <mxCell id="M8v9AEWylemteUUnZ0sZ-4" style="edgeStyle=none;curved=1;rounded=0;orthogonalLoop=1;jettySize=auto;html=1;fontSize=12;startSize=8;endSize=8;entryX=0.5;entryY=0;entryDx=0;entryDy=0;" edge="1" parent="1" target="M8v9AEWylemteUUnZ0sZ-11">
          <mxGeometry relative="1" as="geometry">
            <mxPoint x="235" y="300" as="targetPoint" />
            <mxPoint x="235" y="240" as="sourcePoint" />
          </mxGeometry>
        </mxCell>
        <mxCell id="M8v9AEWylemteUUnZ0sZ-5" value="" style="rounded=1;whiteSpace=wrap;html=1;fillColor=#000000;" vertex="1" parent="1">
          <mxGeometry x="220" y="230" width="360" height="20" as="geometry" />
        </mxCell>
        <mxCell id="M8v9AEWylemteUUnZ0sZ-6" style="edgeStyle=none;curved=1;rounded=0;orthogonalLoop=1;jettySize=auto;html=1;fontSize=12;startSize=8;endSize=8;" edge="1" parent="1" source="M8v9AEWylemteUUnZ0sZ-2">
          <mxGeometry relative="1" as="geometry">
            <mxPoint x="235" y="230" as="targetPoint" />
          </mxGeometry>
        </mxCell>
        <mxCell id="M8v9AEWylemteUUnZ0sZ-7" style="edgeStyle=none;curved=1;rounded=0;orthogonalLoop=1;jettySize=auto;html=1;entryX=0.5;entryY=0;entryDx=0;entryDy=0;fontSize=12;startSize=8;endSize=8;" edge="1" parent="1" source="M8v9AEWylemteUUnZ0sZ-8" target="M8v9AEWylemteUUnZ0sZ-16">
          <mxGeometry relative="1" as="geometry" />
        </mxCell>
        <mxCell id="M8v9AEWylemteUUnZ0sZ-8" value="註冊" style="rounded=1;whiteSpace=wrap;html=1;" vertex="1" parent="1">
          <mxGeometry x="195" y="400" width="80" height="30" as="geometry" />
        </mxCell>
        <mxCell id="M8v9AEWylemteUUnZ0sZ-9" value="無帳號" style="edgeStyle=none;curved=1;rounded=0;orthogonalLoop=1;jettySize=auto;html=1;fontSize=12;startSize=8;endSize=8;" edge="1" parent="1" source="M8v9AEWylemteUUnZ0sZ-11" target="M8v9AEWylemteUUnZ0sZ-8">
          <mxGeometry relative="1" as="geometry" />
        </mxCell>
        <mxCell id="M8v9AEWylemteUUnZ0sZ-10" value="有帳號" style="edgeStyle=none;curved=1;rounded=0;orthogonalLoop=1;jettySize=auto;html=1;entryX=0;entryY=0.5;entryDx=0;entryDy=0;fontSize=12;startSize=8;endSize=8;" edge="1" parent="1" source="M8v9AEWylemteUUnZ0sZ-11" target="M8v9AEWylemteUUnZ0sZ-13">
          <mxGeometry relative="1" as="geometry">
            <mxPoint as="offset" />
          </mxGeometry>
        </mxCell>
        <mxCell id="M8v9AEWylemteUUnZ0sZ-11" value="" style="rhombus;whiteSpace=wrap;html=1;" vertex="1" parent="1">
          <mxGeometry x="220" y="300" width="30" height="30" as="geometry" />
        </mxCell>
        <mxCell id="M8v9AEWylemteUUnZ0sZ-12" style="edgeStyle=none;curved=1;rounded=0;orthogonalLoop=1;jettySize=auto;html=1;fontSize=12;startSize=8;endSize=8;entryX=0.5;entryY=0;entryDx=0;entryDy=0;" edge="1" parent="1" source="M8v9AEWylemteUUnZ0sZ-13" target="M8v9AEWylemteUUnZ0sZ-23">
          <mxGeometry relative="1" as="geometry">
            <mxPoint x="380" y="380" as="targetPoint" />
          </mxGeometry>
        </mxCell>
        <mxCell id="M8v9AEWylemteUUnZ0sZ-13" value="登入" style="rounded=1;whiteSpace=wrap;html=1;" vertex="1" parent="1">
          <mxGeometry x="340" y="300" width="80" height="30" as="geometry" />
        </mxCell>
        <mxCell id="M8v9AEWylemteUUnZ0sZ-14" value="成功" style="edgeStyle=none;curved=1;rounded=0;orthogonalLoop=1;jettySize=auto;html=1;fontSize=12;startSize=8;endSize=8;" edge="1" parent="1" source="M8v9AEWylemteUUnZ0sZ-16" target="M8v9AEWylemteUUnZ0sZ-18">
          <mxGeometry relative="1" as="geometry">
            <mxPoint x="235" y="540" as="targetPoint" />
          </mxGeometry>
        </mxCell>
        <mxCell id="M8v9AEWylemteUUnZ0sZ-15" value="失敗" style="edgeStyle=none;curved=1;rounded=0;orthogonalLoop=1;jettySize=auto;html=1;fontSize=12;startSize=8;endSize=8;" edge="1" parent="1" source="M8v9AEWylemteUUnZ0sZ-16" target="M8v9AEWylemteUUnZ0sZ-20">
          <mxGeometry relative="1" as="geometry">
            <mxPoint x="170" y="475" as="targetPoint" />
          </mxGeometry>
        </mxCell>
        <mxCell id="M8v9AEWylemteUUnZ0sZ-16" value="" style="rhombus;whiteSpace=wrap;html=1;" vertex="1" parent="1">
          <mxGeometry x="220" y="460" width="30" height="30" as="geometry" />
        </mxCell>
        <mxCell id="M8v9AEWylemteUUnZ0sZ-17" style="edgeStyle=orthogonalEdgeStyle;rounded=0;orthogonalLoop=1;jettySize=auto;html=1;fontSize=12;startSize=8;endSize=8;" edge="1" parent="1" source="M8v9AEWylemteUUnZ0sZ-18">
          <mxGeometry relative="1" as="geometry">
            <mxPoint x="218" y="204" as="targetPoint" />
            <Array as="points">
              <mxPoint x="50" y="570" />
              <mxPoint x="50" y="204" />
            </Array>
          </mxGeometry>
        </mxCell>
        <mxCell id="M8v9AEWylemteUUnZ0sZ-18" value="傳送成功訊息" style="rounded=1;whiteSpace=wrap;html=1;" vertex="1" parent="1">
          <mxGeometry x="195" y="550" width="85" height="35" as="geometry" />
        </mxCell>
        <mxCell id="M8v9AEWylemteUUnZ0sZ-19" style="edgeStyle=orthogonalEdgeStyle;rounded=0;orthogonalLoop=1;jettySize=auto;html=1;entryX=0;entryY=0.5;entryDx=0;entryDy=0;fontSize=12;startSize=8;endSize=8;" edge="1" parent="1" source="M8v9AEWylemteUUnZ0sZ-20" target="M8v9AEWylemteUUnZ0sZ-8">
          <mxGeometry relative="1" as="geometry">
            <Array as="points">
              <mxPoint x="100" y="415" />
            </Array>
          </mxGeometry>
        </mxCell>
        <mxCell id="M8v9AEWylemteUUnZ0sZ-20" value="回傳非法字元/重複帳號" style="rounded=1;whiteSpace=wrap;html=1;" vertex="1" parent="1">
          <mxGeometry x="70" y="455" width="90" height="35" as="geometry" />
        </mxCell>
        <mxCell id="M8v9AEWylemteUUnZ0sZ-21" value="成功登入" style="edgeStyle=none;curved=1;rounded=0;orthogonalLoop=1;jettySize=auto;html=1;fontSize=12;startSize=8;endSize=8;" edge="1" parent="1" source="M8v9AEWylemteUUnZ0sZ-23" target="M8v9AEWylemteUUnZ0sZ-25">
          <mxGeometry relative="1" as="geometry">
            <mxPoint x="380" y="470" as="targetPoint" />
            <Array as="points">
              <mxPoint x="380" y="470" />
            </Array>
          </mxGeometry>
        </mxCell>
        <mxCell id="M8v9AEWylemteUUnZ0sZ-22" value="登入失敗" style="edgeStyle=orthogonalEdgeStyle;rounded=0;orthogonalLoop=1;jettySize=auto;html=1;fontSize=12;startSize=8;endSize=8;" edge="1" parent="1" target="M8v9AEWylemteUUnZ0sZ-27">
          <mxGeometry relative="1" as="geometry">
            <mxPoint x="470" y="395" as="targetPoint" />
            <mxPoint x="400" y="390" as="sourcePoint" />
            <Array as="points">
              <mxPoint x="400" y="391" />
              <mxPoint x="440" y="391" />
              <mxPoint x="440" y="315" />
            </Array>
          </mxGeometry>
        </mxCell>
        <mxCell id="M8v9AEWylemteUUnZ0sZ-23" value="" style="rhombus;whiteSpace=wrap;html=1;" vertex="1" parent="1">
          <mxGeometry x="365" y="380" width="30" height="30" as="geometry" />
        </mxCell>
        <mxCell id="M8v9AEWylemteUUnZ0sZ-24" style="edgeStyle=none;curved=1;rounded=0;orthogonalLoop=1;jettySize=auto;html=1;fontSize=12;startSize=8;endSize=8;" edge="1" parent="1" source="M8v9AEWylemteUUnZ0sZ-25" target="M8v9AEWylemteUUnZ0sZ-30">
          <mxGeometry relative="1" as="geometry">
            <mxPoint x="380" y="580" as="targetPoint" />
          </mxGeometry>
        </mxCell>
        <mxCell id="M8v9AEWylemteUUnZ0sZ-25" value="顯示登入成功" style="rounded=1;whiteSpace=wrap;html=1;" vertex="1" parent="1">
          <mxGeometry x="340" y="475" width="80" height="30" as="geometry" />
        </mxCell>
        <mxCell id="M8v9AEWylemteUUnZ0sZ-26" style="edgeStyle=none;curved=1;rounded=0;orthogonalLoop=1;jettySize=auto;html=1;fontSize=12;startSize=8;endSize=8;" edge="1" parent="1" source="M8v9AEWylemteUUnZ0sZ-27" target="M8v9AEWylemteUUnZ0sZ-41">
          <mxGeometry relative="1" as="geometry">
            <mxPoint x="530" y="380" as="targetPoint" />
          </mxGeometry>
        </mxCell>
        <mxCell id="M8v9AEWylemteUUnZ0sZ-27" value="顯示忘記密碼選項" style="rounded=1;whiteSpace=wrap;html=1;" vertex="1" parent="1">
          <mxGeometry x="490" y="300" width="80" height="35" as="geometry" />
        </mxCell>
        <mxCell id="M8v9AEWylemteUUnZ0sZ-28" value="無須更改個人資料" style="edgeStyle=orthogonalEdgeStyle;rounded=0;orthogonalLoop=1;jettySize=auto;html=1;fontSize=12;startSize=8;endSize=8;" edge="1" parent="1" source="M8v9AEWylemteUUnZ0sZ-30" target="M8v9AEWylemteUUnZ0sZ-2">
          <mxGeometry x="-0.8166" relative="1" as="geometry">
            <mxPoint x="380" y="660" as="targetPoint" />
            <Array as="points">
              <mxPoint x="380" y="610" />
              <mxPoint x="20" y="610" />
              <mxPoint x="20" y="190" />
            </Array>
            <mxPoint as="offset" />
          </mxGeometry>
        </mxCell>
        <mxCell id="M8v9AEWylemteUUnZ0sZ-29" value="更改個資" style="edgeStyle=none;curved=1;rounded=0;orthogonalLoop=1;jettySize=auto;html=1;fontSize=12;startSize=8;endSize=8;" edge="1" parent="1" source="M8v9AEWylemteUUnZ0sZ-30" target="M8v9AEWylemteUUnZ0sZ-32">
          <mxGeometry relative="1" as="geometry">
            <mxPoint x="420" y="600" as="targetPoint" />
          </mxGeometry>
        </mxCell>
        <mxCell id="M8v9AEWylemteUUnZ0sZ-30" value="" style="rhombus;whiteSpace=wrap;html=1;" vertex="1" parent="1">
          <mxGeometry x="365" y="555" width="30" height="30" as="geometry" />
        </mxCell>
        <mxCell id="M8v9AEWylemteUUnZ0sZ-31" style="edgeStyle=none;curved=1;rounded=0;orthogonalLoop=1;jettySize=auto;html=1;fontSize=12;startSize=8;endSize=8;" edge="1" parent="1" source="M8v9AEWylemteUUnZ0sZ-32" target="M8v9AEWylemteUUnZ0sZ-35">
          <mxGeometry relative="1" as="geometry">
            <mxPoint x="525" y="630" as="targetPoint" />
          </mxGeometry>
        </mxCell>
        <mxCell id="M8v9AEWylemteUUnZ0sZ-32" value="顯示更改資料頁面" style="rounded=1;whiteSpace=wrap;html=1;" vertex="1" parent="1">
          <mxGeometry x="480" y="550" width="90" height="40" as="geometry" />
        </mxCell>
        <mxCell id="M8v9AEWylemteUUnZ0sZ-33" value="成功" style="edgeStyle=none;curved=1;rounded=0;orthogonalLoop=1;jettySize=auto;html=1;fontSize=12;startSize=8;endSize=8;" edge="1" parent="1" source="M8v9AEWylemteUUnZ0sZ-35" target="M8v9AEWylemteUUnZ0sZ-37">
          <mxGeometry relative="1" as="geometry">
            <mxPoint x="525" y="700" as="targetPoint" />
          </mxGeometry>
        </mxCell>
        <mxCell id="M8v9AEWylemteUUnZ0sZ-34" value="失敗" style="edgeStyle=none;curved=1;rounded=0;orthogonalLoop=1;jettySize=auto;html=1;fontSize=12;startSize=8;endSize=8;" edge="1" parent="1" source="M8v9AEWylemteUUnZ0sZ-35" target="M8v9AEWylemteUUnZ0sZ-39">
          <mxGeometry relative="1" as="geometry">
            <mxPoint x="580" y="655" as="targetPoint" />
          </mxGeometry>
        </mxCell>
        <mxCell id="M8v9AEWylemteUUnZ0sZ-35" value="" style="rhombus;whiteSpace=wrap;html=1;" vertex="1" parent="1">
          <mxGeometry x="510" y="640" width="30" height="30" as="geometry" />
        </mxCell>
        <mxCell id="M8v9AEWylemteUUnZ0sZ-36" style="edgeStyle=orthogonalEdgeStyle;rounded=0;orthogonalLoop=1;jettySize=auto;html=1;fontSize=12;startSize=8;endSize=8;entryX=1;entryY=0;entryDx=0;entryDy=0;" edge="1" parent="1" source="M8v9AEWylemteUUnZ0sZ-37" target="M8v9AEWylemteUUnZ0sZ-2">
          <mxGeometry relative="1" as="geometry">
            <Array as="points">
              <mxPoint x="760" y="730" />
              <mxPoint x="760" y="184" />
            </Array>
          </mxGeometry>
        </mxCell>
        <mxCell id="M8v9AEWylemteUUnZ0sZ-37" value="顯示成功訊息" style="rounded=1;whiteSpace=wrap;html=1;" vertex="1" parent="1">
          <mxGeometry x="483.75" y="710" width="86.25" height="40" as="geometry" />
        </mxCell>
        <mxCell id="M8v9AEWylemteUUnZ0sZ-38" style="edgeStyle=orthogonalEdgeStyle;rounded=0;orthogonalLoop=1;jettySize=auto;html=1;entryX=1;entryY=0.5;entryDx=0;entryDy=0;fontSize=12;startSize=8;endSize=8;" edge="1" parent="1" source="M8v9AEWylemteUUnZ0sZ-39" target="M8v9AEWylemteUUnZ0sZ-32">
          <mxGeometry relative="1" as="geometry">
            <Array as="points">
              <mxPoint x="630" y="570" />
            </Array>
          </mxGeometry>
        </mxCell>
        <mxCell id="M8v9AEWylemteUUnZ0sZ-39" value="回傳非法字元/重複帳號" style="rounded=1;whiteSpace=wrap;html=1;" vertex="1" parent="1">
          <mxGeometry x="590" y="633.75" width="90" height="42.5" as="geometry" />
        </mxCell>
        <mxCell id="M8v9AEWylemteUUnZ0sZ-40" style="edgeStyle=none;curved=1;rounded=0;orthogonalLoop=1;jettySize=auto;html=1;fontSize=12;startSize=8;endSize=8;" edge="1" parent="1" source="M8v9AEWylemteUUnZ0sZ-41" target="M8v9AEWylemteUUnZ0sZ-44">
          <mxGeometry relative="1" as="geometry">
            <mxPoint x="530" y="430" as="targetPoint" />
          </mxGeometry>
        </mxCell>
        <mxCell id="M8v9AEWylemteUUnZ0sZ-41" value="驗證email" style="rounded=1;whiteSpace=wrap;html=1;" vertex="1" parent="1">
          <mxGeometry x="490" y="370" width="80" height="30" as="geometry" />
        </mxCell>
        <mxCell id="M8v9AEWylemteUUnZ0sZ-42" value="訪問成功" style="edgeStyle=none;curved=1;rounded=0;orthogonalLoop=1;jettySize=auto;html=1;fontSize=12;startSize=8;endSize=8;" edge="1" parent="1" source="M8v9AEWylemteUUnZ0sZ-44" target="M8v9AEWylemteUUnZ0sZ-46">
          <mxGeometry relative="1" as="geometry">
            <mxPoint x="530" y="490" as="targetPoint" />
          </mxGeometry>
        </mxCell>
        <mxCell id="M8v9AEWylemteUUnZ0sZ-43" value="訪問失敗" style="edgeStyle=none;curved=1;rounded=0;orthogonalLoop=1;jettySize=auto;html=1;fontSize=12;startSize=8;endSize=8;" edge="1" parent="1" source="M8v9AEWylemteUUnZ0sZ-44" target="M8v9AEWylemteUUnZ0sZ-48">
          <mxGeometry relative="1" as="geometry">
            <mxPoint x="600" y="445" as="targetPoint" />
          </mxGeometry>
        </mxCell>
        <mxCell id="M8v9AEWylemteUUnZ0sZ-44" value="" style="rhombus;whiteSpace=wrap;html=1;" vertex="1" parent="1">
          <mxGeometry x="515" y="430" width="30" height="30" as="geometry" />
        </mxCell>
        <mxCell id="M8v9AEWylemteUUnZ0sZ-45" style="edgeStyle=orthogonalEdgeStyle;rounded=0;orthogonalLoop=1;jettySize=auto;html=1;fontSize=12;startSize=8;endSize=8;entryX=1;entryY=0.5;entryDx=0;entryDy=0;" edge="1" parent="1" source="M8v9AEWylemteUUnZ0sZ-46" target="M8v9AEWylemteUUnZ0sZ-2">
          <mxGeometry relative="1" as="geometry">
            <mxPoint x="500" y="210" as="targetPoint" />
            <Array as="points">
              <mxPoint x="740" y="520" />
              <mxPoint x="740" y="195" />
            </Array>
          </mxGeometry>
        </mxCell>
        <mxCell id="M8v9AEWylemteUUnZ0sZ-46" value="傳送密碼至email" style="rounded=1;whiteSpace=wrap;html=1;" vertex="1" parent="1">
          <mxGeometry x="490" y="500" width="80" height="40" as="geometry" />
        </mxCell>
        <mxCell id="M8v9AEWylemteUUnZ0sZ-47" style="edgeStyle=orthogonalEdgeStyle;rounded=0;orthogonalLoop=1;jettySize=auto;html=1;fontSize=12;startSize=8;endSize=8;entryX=1;entryY=1;entryDx=0;entryDy=0;" edge="1" parent="1" source="M8v9AEWylemteUUnZ0sZ-48" target="M8v9AEWylemteUUnZ0sZ-2">
          <mxGeometry relative="1" as="geometry">
            <mxPoint x="246.800048828125" y="220" as="targetPoint" />
            <Array as="points">
              <mxPoint x="720" y="445" />
              <mxPoint x="720" y="206" />
            </Array>
          </mxGeometry>
        </mxCell>
        <mxCell id="M8v9AEWylemteUUnZ0sZ-48" value="回傳錯誤並且拒絕訪問" style="rounded=1;whiteSpace=wrap;html=1;" vertex="1" parent="1">
          <mxGeometry x="620" y="427.5" width="80" height="35" as="geometry" />
        </mxCell>
        <mxCell id="M8v9AEWylemteUUnZ0sZ-49" style="edgeStyle=none;curved=1;rounded=0;orthogonalLoop=1;jettySize=auto;html=1;entryX=0.5;entryY=1;entryDx=0;entryDy=0;fontSize=12;startSize=8;endSize=8;" edge="1" parent="1" source="M8v9AEWylemteUUnZ0sZ-50" target="M8v9AEWylemteUUnZ0sZ-51">
          <mxGeometry relative="1" as="geometry" />
        </mxCell>
        <mxCell id="M8v9AEWylemteUUnZ0sZ-50" value="" style="ellipse;html=1;shape=endState;fillColor=#000000;strokeColor=#000000;" vertex="1" parent="1">
          <mxGeometry x="200" y="870" width="30" height="30" as="geometry" />
        </mxCell>
        <mxCell id="M8v9AEWylemteUUnZ0sZ-51" value="" style="ellipse;whiteSpace=wrap;html=1;aspect=fixed;fillColor=#000000;" vertex="1" parent="1">
          <mxGeometry x="200" y="810" width="30" height="30" as="geometry" />
        </mxCell>
        <mxCell id="M8v9AEWylemteUUnZ0sZ-52" value="" style="rounded=1;whiteSpace=wrap;html=1;fillColor=#000000;" vertex="1" parent="1">
          <mxGeometry x="200" y="920" width="360" height="20" as="geometry" />
        </mxCell>
        <mxCell id="M8v9AEWylemteUUnZ0sZ-53" style="edgeStyle=none;curved=1;rounded=0;orthogonalLoop=1;jettySize=auto;html=1;fontSize=12;startSize=8;endSize=8;" edge="1" parent="1" source="M8v9AEWylemteUUnZ0sZ-50">
          <mxGeometry relative="1" as="geometry">
            <mxPoint x="215" y="920" as="targetPoint" />
          </mxGeometry>
        </mxCell>
        <mxCell id="M8v9AEWylemteUUnZ0sZ-54" value="" style="endArrow=classic;html=1;rounded=0;fontSize=12;startSize=8;endSize=8;curved=1;exitX=0.046;exitY=1.1;exitDx=0;exitDy=0;exitPerimeter=0;" edge="1" parent="1" target="M8v9AEWylemteUUnZ0sZ-55">
          <mxGeometry width="50" height="50" relative="1" as="geometry">
            <mxPoint x="214.49999999999994" y="942" as="sourcePoint" />
            <mxPoint x="215" y="990" as="targetPoint" />
          </mxGeometry>
        </mxCell>
        <mxCell id="M8v9AEWylemteUUnZ0sZ-55" value="導航" style="rounded=1;whiteSpace=wrap;html=1;" vertex="1" parent="1">
          <mxGeometry x="177.5" y="990" width="75" height="30" as="geometry" />
        </mxCell>
      </root>
    </mxGraphModel>
  </diagram>
</mxfile>
